<svg width="20" height="20" viewBox="0 0 20 20" fill="none" xmlns="http://www.w3.org/2000/svg">
<path d="M13.3333 6.66675V4.33341C13.3333 3.39999 13.3333 2.93328 13.1517 2.57676C12.9919 2.26316 12.7369 2.00819 12.4233 1.8484C12.0668 1.66675 11.6001 1.66675 10.6667 1.66675H4.33334C3.39992 1.66675 2.93321 1.66675 2.57669 1.8484C2.26308 2.00819 2.00812 2.26316 1.84833 2.57676C1.66667 2.93328 1.66667 3.39999 1.66667 4.33341V10.6667C1.66667 11.6002 1.66667 12.0669 1.84833 12.4234C2.00812 12.737 2.26308 12.992 2.57669 13.1518C2.93321 13.3334 3.39992 13.3334 4.33334 13.3334H6.66667M9.33334 18.3334H15.6667C16.6001 18.3334 17.0668 18.3334 17.4233 18.1518C17.7369 17.992 17.9919 17.737 18.1517 17.4234C18.3333 17.0669 18.3333 16.6002 18.3333 15.6667V9.33341C18.3333 8.39999 18.3333 7.93328 18.1517 7.57676C17.9919 7.26316 17.7369 7.00819 17.4233 6.8484C17.0668 6.66675 16.6001 6.66675 15.6667 6.66675H9.33334C8.39992 6.66675 7.93321 6.66675 7.57669 6.8484C7.26308 7.00819 7.00812 7.26316 6.84833 7.57676C6.66667 7.93328 6.66667 8.39999 6.66667 9.33341V15.6667C6.66667 16.6002 6.66667 17.0669 6.84833 17.4234C7.00812 17.737 7.26308 17.992 7.57669 18.1518C7.93321 18.3334 8.39992 18.3334 9.33334 18.3334Z" stroke="black" stroke-width="2" stroke-linecap="round" stroke-linejoin="round"/>
</svg>
